<svg xmlns="http://www.w3.org/2000/svg" width="25" height="24" viewBox="0 0 27 26" fill="#000">
<path d="M3.73574 2.18116C2.86729 2.18116 2.01871 2.18556 1.17013 2.17969C0.549371 2.17528 0.0692751 1.7745 0.00735195 1.2247C-0.065274 0.580944 0.407941 0.0223379 1.08298 0.0120613C2.25799 -0.00628973 3.433 -0.00115119 4.60801 0.0105935C5.12098 0.0157318 5.50781 0.315955 5.66224 0.802625C5.94663 1.69816 6.22719 2.59442 6.49247 3.49509C6.55821 3.71751 6.65836 3.78651 6.90223 3.78577C13.1114 3.77843 19.3205 3.7799 25.5296 3.7799C25.665 3.7799 25.801 3.77697 25.9363 3.78577C26.6267 3.83202 27.1037 4.38402 26.9806 5.03952C26.7559 6.24261 26.5067 7.44204 26.2651 8.6422C25.8714 10.6006 25.4784 12.5583 25.0809 14.516C24.9739 15.0431 24.6245 15.358 24.0741 15.4226C21.6896 15.703 19.3044 15.9775 16.9193 16.2557C14.4355 16.5456 11.9524 16.8385 9.4686 17.1233C9.31647 17.1409 9.23926 17.1909 9.2125 17.3311C9.19262 17.4331 9.15287 17.5322 9.13758 17.6342C9.08942 17.9572 9.16128 18.1033 9.49001 18.1752C9.82944 18.2493 10.1872 18.3125 10.5312 18.2905C13.5418 18.0974 16.55 17.861 19.5621 17.6863C20.9496 17.6063 22.344 17.6232 23.7354 17.6203C24.3256 17.6188 24.6941 17.9733 24.6986 18.4666C24.7032 18.9408 24.3348 19.3166 23.8409 19.3277C23.5794 19.3335 23.3165 19.3071 23.055 19.3166C20.8885 19.3981 18.7204 19.4613 16.5561 19.5758C14.7971 19.669 13.0418 19.8165 11.2858 19.9575C10.5977 20.0125 9.91735 20.0455 9.23773 19.8965C7.80738 19.5838 7.09259 18.5312 7.42131 17.1586C7.51917 16.749 7.72329 16.3636 7.86777 15.9635C7.90294 15.8652 7.93199 15.7419 7.90294 15.6479C6.51999 11.1688 5.13245 6.69111 3.73574 2.18116ZM12.8277 5.96001C10.9739 5.96001 9.13758 5.96001 7.29135 5.96001C7.29517 6.00919 7.29212 6.04442 7.30205 6.07672C7.63002 7.13961 7.96257 8.20104 8.28442 9.2654C8.33105 9.41955 8.42126 9.4357 8.55963 9.43497C9.45331 9.43056 10.3478 9.43276 11.2414 9.43276C11.7643 9.43276 12.2873 9.43276 12.8277 9.43276C12.8277 8.26564 12.8277 7.11686 12.8277 5.96001ZM13.9263 14.4015C13.9844 14.4015 14.0287 14.4059 14.0716 14.4008C15.5057 14.2356 16.9391 14.0668 18.3741 13.9082C18.5591 13.8877 18.5614 13.7937 18.5606 13.6631C18.5583 12.7866 18.5591 11.9109 18.5591 11.0344C18.5591 10.8546 18.5591 10.6748 18.5591 10.4832C16.998 10.4832 15.4683 10.4832 13.9263 10.4832C13.9263 11.7964 13.9263 13.0934 13.9263 14.4015ZM18.5361 9.42175C18.5361 8.25169 18.5361 7.10585 18.5361 5.96735C16.9842 5.96735 15.4553 5.96735 13.9294 5.96735C13.9294 7.13007 13.9294 8.27077 13.9294 9.42175C15.4706 9.42175 16.9934 9.42175 18.5361 9.42175ZM19.65 5.96001C19.65 7.12126 19.65 8.26784 19.65 9.41441C21.0482 9.41441 22.4258 9.41441 23.8103 9.41441C24.0412 8.25536 24.269 7.11319 24.4991 5.96001C22.8524 5.96001 21.2577 5.96001 19.65 5.96001ZM10.0267 14.8676C10.9326 14.7656 11.811 14.6643 12.6886 14.5689C12.8858 14.5476 12.8438 14.411 12.8438 14.2973C12.8453 13.1088 12.8453 11.9204 12.8438 10.7313C12.8438 10.6483 12.8346 10.5647 12.8293 10.4854C11.4333 10.4854 10.0664 10.4854 8.66819 10.4854C9.12306 11.9527 9.57028 13.3951 10.0267 14.8676ZM19.6424 13.7541C20.7447 13.6263 21.8188 13.5038 22.8914 13.3724C22.9472 13.3658 23.0244 13.2828 23.0367 13.2241C23.227 12.3168 23.4074 11.4081 23.594 10.4824C22.2653 10.4824 20.9603 10.4824 19.6424 10.4824C19.6424 11.5703 19.6424 12.642 19.6424 13.7541Z"></path>
<path d="M6.84571 23.0383C6.84189 21.8316 7.83649 20.8678 9.08871 20.8641C10.3448 20.8604 11.3508 21.8169 11.3539 23.0178C11.3569 24.2194 10.3562 25.192 9.10935 25.1993C7.86783 25.2067 6.84954 24.2341 6.84571 23.0383Z"></path>
<path d="M19.6953 23.0207C19.6991 21.8169 20.7044 20.8582 21.9567 20.8641C23.2097 20.87 24.2104 21.8352 24.2073 23.0361C24.2042 24.229 23.1837 25.203 21.9414 25.2001C20.6976 25.1964 19.6915 24.2201 19.6953 23.0207Z"></path>
</svg>